<svg width="32" height="32" viewBox="0 0 32 32" fill="none" xmlns="http://www.w3.org/2000/svg">
<mask id="path-1-inside-1_52_15" fill="white">
<rect width="32" height="32" rx="1"/>
</mask>
<rect width="32" height="32" rx="1" stroke="#050505" stroke-width="4" mask="url(#path-1-inside-1_52_15)"/>
<path d="M23.5012 17.2564C22.7314 15.9231 20.8069 15.9231 20.0371 17.2564L17.5501 21.5641C16.7803 22.8974 17.7425 24.5641 19.2821 24.5641H24.2562C25.7958 24.5641 26.7581 22.8974 25.9883 21.5641L23.5012 17.2564Z" fill="#050505"/>
<path d="M11.6038 17.2564C10.834 15.9231 8.90949 15.9231 8.13968 17.2564L5.65264 21.5641C4.88284 22.8974 5.84509 24.5641 7.38469 24.5641H12.3588C13.8984 24.5641 14.8606 22.8974 14.0908 21.5641L11.6038 17.2564Z" fill="#050505"/>
<path d="M17.5525 7C16.7827 5.66667 14.8582 5.66667 14.0884 7L11.6014 11.3077C10.8316 12.641 11.7938 14.3077 13.3334 14.3077H18.3075C19.8471 14.3077 20.8094 12.641 20.0396 11.3077L17.5525 7Z" fill="#050505"/>
</svg>
